<svg version="1.1" xmlns="http://www.w3.org/2000/svg" xmlns:xlink="http://www.w3.org/1999/xlink" x="0px" y="0px" viewBox="0 0 2122 2122" style="enable-background:new 0 0 2122 2122;" xml:space="preserve">
<defs>
  <linearGradient id="grad1" x1="0%" y1="0%" x2="100%" y2="100%">
    <stop offset="0%" style="stop-color:#FFD600;stop-opacity:1" />
    <stop offset="100%" style="stop-color:#FF6F00;stop-opacity:1" />
  </linearGradient>
  <linearGradient id="grad2" x1="0%" y1="0%" x2="100%" y2="100%">
    <stop offset="0%" style="stop-color:#FFA726;stop-opacity:1" />
    <stop offset="100%" style="stop-color:#F57C00;stop-opacity:1" />
  </linearGradient>
  <linearGradient id="grad3" x1="0%" y1="0%" x2="100%" y2="100%">
    <stop offset="0%" style="stop-color:#FFCA28;stop-opacity:1" />
    <stop offset="100%" style="stop-color:#FF8F00;stop-opacity:1" />
  </linearGradient>
  <filter id="shadow">
    <feDropShadow dx="0" dy="8" stdDeviation="12" flood-opacity="0.3"/>
  </filter>
  <filter id="glow">
    <feGaussianBlur stdDeviation="4" result="coloredBlur"/>
    <feMerge>
      <feMergeNode in="coloredBlur"/>
      <feMergeNode in="SourceGraphic"/>
    </feMerge>
  </filter>
</defs>

<g filter="url(#shadow)">
  <!-- Elemento principal superior direito -->
  <path fill="url(#grad1)" stroke="#FF6F00" stroke-width="8" stroke-linejoin="round" d="M1268.056,663.484c3.091,5.173,4.682,7.973,4.682,7.973l-64.377,40.356
    c-23.982,15.034-16.402,51.779,11.573,56.096l282.927,43.656c14.311,2.208,28.208-5.931,33.283-19.493l102.149-272.991
    c9.934-26.546-18.488-51.141-43.332-37.496l-67.53,37.087c-50.083-120.919-275.049-331.608-295.939-337.786
    c-40.95-12.115-244.059-15.549-297.735-14.86c-15.352,0.197-30.703,1.196-45.925,3.219
    c-39.361,5.232-78.135,18.494-111.158,39.899c-0.052-0.017-0.103-0.034-0.156-0.05c-0.914,0.637-1.824,1.288-2.73,1.951
    c-30.386,20.344-55.67,47.729-71.705,82.251c1.569-2.651,3.368-5.112,5.354-7.401c-13.186,19.45-25.514,39.642-37.347,58.304
    c-0.283,0.445-0.565,0.89-0.848,1.334c-1.692,2.663-3.374,5.292-5.046,7.884c-0.558,0.864-1.115,1.723-1.67,2.577
    c-0.556,0.855-1.111,1.705-1.664,2.55c-0.83,1.268-1.66,2.524-2.487,3.771c-0.551,0.829-1.101,1.654-1.65,2.474
    c-1.374,2.049-2.743,4.063-4.107,6.039c-64.815,93.892-125.573,190.586-182.059,289.712
    c2.878,13.516,21.254,93.239,99.826,140.973c43.638,26.51,110.31,42.779,160.859,26.012c22.507-7.466,23.599-17.133,36.904-39.151
    c19.359-32.037,39.238-63.759,59.619-95.156c44.842-69.077,92.125-136.568,141.729-202.308c0.03,0.018,0.062,0.036,0.092,0.056
    c26.878-35.62,54.399-70.756,82.595-105.342c41.681,42.657,79.163,89.251,117.174,135.179
    C1206.058,565.149,1238.771,613.964,1268.056,663.484z"/>
  
  <!-- Elemento principal inferior direito -->
  <path fill="url(#grad2)" stroke="#F57C00" stroke-width="8" stroke-linejoin="round" d="M1979.892,1374.554c-0.059-1.114-0.133-2.231-0.217-3.35c-1.27-36.544-11.213-72.467-32.094-104.29
    c1.424,2.729,2.567,5.555,3.465,8.449c-14.377-32.217-31.197-63.674-43.274-91.356c-1.357-3.11-2.718-6.217-4.083-9.323
    c-44.523-101.351-93.293-200.834-146.131-298.109c-13.004-4.68-90.436-31.092-172.418,10.514
    c-45.533,23.107-94.505,71.185-106.903,122.979c-5.521,23.061,2.118,29.085,13.814,51.998
    c17.02,33.339,33.496,66.954,49.432,100.824c46.71,99.28,88.746,200.76,125.92,303.989c-0.007,0.005-0.014,0.012-0.021,0.018
    c5.848,16.24,11.578,32.521,17.191,48.844c-58.224,12.933-117.582,20.222-176.65,28.312c-57.032,7.81-115.759,9.876-173.277,8.656
    c-6.024-0.101-9.243-0.224-9.243-0.224l-0.356-75.98c-0.133-28.306-35.354-41.235-53.768-19.738l-186.246,217.408
    c-9.422,10.997-9.831,27.096-0.981,38.558l178.13,230.714c17.321,22.435,53.205,11.247,54.706-17.056l4.083-76.935
    c129.155,21.186,426.785-58.918,443.047-73.411c31.881-28.411,141.87-199.196,169.581-245.171
    c7.925-13.15,15.168-26.721,21.474-40.723c16.305-36.207,25.474-76.146,24.693-115.491
    C1979.809,1374.625,1979.85,1374.59,1979.892,1374.554z"/>
  
  <!-- Elemento principal inferior esquerdo -->
  <path fill="url(#grad3)" stroke="#FF8F00" stroke-width="8" stroke-linejoin="round" d="M954.596,1584.526c-18.14-15.275-26.948-11.147-52.674-10.964
    c-37.431,0.265-74.865-0.077-112.285-1.017c-100.986-2.539-201.863-9.457-302.251-20.724c-0.014-0.039-0.03-0.077-0.046-0.115
    c-25.781-2.894-51.534-6.044-77.248-9.482c14.542-57.833,34.633-114.148,53.883-170.566
    c18.588-54.479,43.072-107.899,69.949-158.767c2.79-5.34,4.343-8.161,4.343-8.161l68.076,33.745
    c25.36,12.571,52.708-13.114,41.749-39.213l-110.835-263.95c-5.606-13.352-19.813-20.935-34.026-18.164l-286.088,55.789
    c-27.82,5.425-33.908,42.515-9.281,56.547l66.939,38.141c-76.841,105.95-138.677,407.903-133.014,428.938
    c11.104,41.235,114.451,216.119,143.123,261.5c8.2,12.979,17.084,25.539,26.772,37.453c25.055,30.806,56.644,56.908,92.163,73.851
    c0.014,0.052,0.027,0.106,0.039,0.158c1.021,0.446,2.051,0.88,3.088,1.305c33.237,15.25,69.805,22.47,107.615,18.071
    c-3.081,0.051-6.12-0.195-9.112-0.69c35.247,1.592,70.907,0.661,101.067,2.278c113.928,6.107,228.119,7.291,342.149,3.561
    c10.013-9.526,68.338-66.898,67.903-158.833C1016.353,1684.159,995.333,1618.829,954.596,1584.526z"/>
</g>

<!-- Destaques com brilho -->
<g filter="url(#glow)" opacity="0.8">
  <path fill="#FFFFFF" opacity="0.4" d="M1268.523,597.248c14.597,9.276,34.019,12.945,49.243,4.74
    c24.04-12.956,26.064-46.06,24.939-73.346c14.762,20.356,50.708,7.52,59.348-16.094c8.641-23.613-0.843-49.676-11.039-72.661
    c-28.979-65.332-65.457-128.879-118.511-176.768c-11.733-10.59-24.881-20.669-40.406-23.629
    c-15.525-2.96-33.836,3.339-40.036,17.878c-5.685,13.329,0.051,28.51,5.752,41.833c-16.636-38.879-106.152,44.746-97.278,84.201
    c12.597,56.009,97.202,130.953,132.111,176.763C1243.129,573.921,1253.926,587.972,1268.523,597.248z"/>
  
  <path fill="#FFFFFF" opacity="0.4" d="M1435.563,1578.401c-16.311-6.827-38.156-3.619-47.23,11.557
    c-6.297,10.532-7.884,26.91-19.954,29.059c-20.604,3.668-25.832-16.096-48.791-2.884c-19.579,11.267-22.899,35.733-19.861,54.959
    c6.75,42.71,61.732,84.965,97.709,101.873c26.526,12.464,63.709,16.208,80.189-8.027c16.37-24.075,0.071-56.191-16.046-80.436
    c15.292,5.612,31.461-10.754,31.956-27.036c0.494-16.281-9.288-30.916-19.11-43.909
    C1463.762,1599.452,1451.874,1585.228,1435.563,1578.401z"/>
  
  <path fill="#FFFFFF" opacity="0.4" d="M442.789,1329.77c2.513-16.53,2.615-36.169-10.393-46.673c-13.099-10.577-28.563-4.56-42.793-0.578
    c-5.02,1.405-9.323,2.281-13.837,5.063c-2.902,1.789-17.043,11.914-16.887,15.189c-1.741-36.701-1.514-77.007-22.799-108.532
    c-18.176-26.922-46.198-29.062-71.753-10.206c-58.961,43.505-70.564,176.72-72.964,242.92
    c-0.609,16.816-0.418,34.186,6.119,49.691c6.538,15.505,20.866,28.827,37.685,29.37c28.649,0.926,46.946-32.406,74.732-39.442
    c4.396,10.485,0.65,22.356-0.376,33.679c-1.025,11.323,3.101,25.454,14.28,27.524c8.289,1.535,15.916-4.499,21.982-10.352
    C397.366,1467.653,432.01,1400.634,442.789,1329.77z"/>
</g>
</svg>